<svg width="100%" height="100%" viewBox="0 0 24 24" fill="none" xmlns="http://www.w3.org/2000/svg">
<path fill-rule="evenodd" clip-rule="evenodd" d="M8.62501 20.1C8.28001 20.1 7.93501 19.965 7.66501 19.71C7.41312 19.457 7.2717 19.1145 7.2717 18.7575C7.2717 18.4005 7.41312 18.058 7.66501 17.805L13.47 12L7.66501 6.21C7.41312 5.957 7.2717 5.61452 7.2717 5.2575C7.2717 4.90048 7.41312 4.558 7.66501 4.305C7.91802 4.0531 8.2605 3.91168 8.61751 3.91168C8.97453 3.91168 9.31701 4.0531 9.57001 4.305L16.32 11.055C16.5719 11.308 16.7133 11.6505 16.7133 12.0075C16.7133 12.3645 16.5719 12.707 16.32 12.96L9.57001 19.71C9.31501 19.965 8.97001 20.1 8.62501 20.1Z" fill="#ADB1BA"/>
</svg>
