<svg width="148" height="114" viewBox="0 0 148 114" fill="none" xmlns="http://www.w3.org/2000/svg">
<path d="M44.2905 40.054L88.5811 114H0L44.2905 40.054Z" fill="#00B288"/>
<path fill-rule="evenodd" clip-rule="evenodd" d="M61.6216 10.0134L99.5905 74.0859L111.304 54.6892L147.122 114H97.2882L48.3842 32.3516L61.6216 10.0134ZM43.9772 39.7884L88.581 114H75.4865L75.4865 114H0L43.9772 39.7884Z" fill="#00B288"/>
<path d="M103.749 13.2937L136.117 17.2184L135.416 22.9984L103.048 19.0736L103.749 13.2937Z" fill="#00B288"/>
<path d="M124.435 2.31299L120.51 34.6805L114.73 33.9796L118.655 1.61214L124.435 2.31299Z" fill="#00B288"/>
<path d="M134.21 10.3813L108.547 30.4934L104.956 25.9108L130.618 5.79876L134.21 10.3813Z" fill="#00B288"/>
<path d="M127.347 32.7732L107.235 7.11071L111.818 3.51927L131.93 29.1818L127.347 32.7732Z" fill="#00B288"/>
</svg>
