<svg width="80" height="80" viewBox="0 0 80 80" fill="none" xmlns="http://www.w3.org/2000/svg">
<g clip-path="url(#clip0_201_5067)">
<path d="M12.3262 74.2881L58.9522 57.5301L20.4962 19.2061L3.81616 65.7881C1.92216 71.0801 7.03816 76.1881 12.3262 74.2881Z" fill="#EF4452"/>
<path d="M20.7121 9.32356C22.7754 9.32356 24.4481 7.6509 24.4481 5.58756C24.4481 3.52423 22.7754 1.85156 20.7121 1.85156C18.6487 1.85156 16.9761 3.52423 16.9761 5.58756C16.9761 7.6509 18.6487 9.32356 20.7121 9.32356Z" fill="#EDCCF8"/>
<path d="M60.6588 56.5127C64.6656 52.5059 59.1577 40.5018 48.3565 29.7006C37.5554 18.8995 25.5512 13.3916 21.5445 17.3984C17.5377 21.4052 23.0456 33.4094 33.8467 44.2105C44.6478 55.0116 56.652 60.5195 60.6588 56.5127Z" fill="#A41926"/>
<path d="M34.1261 27.6136C33.9001 27.6136 33.6681 27.5816 33.4381 27.5176C32.1101 27.1396 31.3421 25.7556 31.7201 24.4276C32.9121 20.2536 32.8481 15.8456 31.5341 11.6796C31.1181 10.3616 31.8501 8.95959 33.1661 8.54359C34.4821 8.12759 35.8861 8.85759 36.3021 10.1756C37.9121 15.2776 37.9901 20.6816 36.5281 25.7996C36.2141 26.8976 35.2161 27.6136 34.1261 27.6136Z" fill="#B44BD7"/>
<path d="M58.7383 34.9139C57.9643 34.9139 57.2003 34.5559 56.7123 33.8799C55.9023 32.7619 56.1523 31.1999 57.2703 30.3879C62.5583 26.5559 68.8203 24.3779 75.3803 24.0919C76.7703 24.0779 77.9263 25.1019 77.9883 26.4799C78.0483 27.8599 76.9783 29.0259 75.6003 29.0879C70.0203 29.3319 64.6983 31.1819 60.2043 34.4379C59.7603 34.7599 59.2483 34.9139 58.7403 34.9139H58.7383Z" fill="#EF4452"/>
<path d="M68.7602 47.532C68.4422 47.532 68.1182 47.47 67.8042 47.34C66.1242 46.644 64.3722 46.108 62.5962 45.746C57.0502 44.614 51.3402 45.164 46.0842 47.34C44.8022 47.866 43.3442 47.262 42.8182 45.988C42.2902 44.712 42.8962 43.25 44.1702 42.722C50.3522 40.162 57.0722 39.514 63.5962 40.848C65.6842 41.274 67.7442 41.904 69.7182 42.722C70.9942 43.25 71.6002 44.712 71.0722 45.988C70.6742 46.95 69.7402 47.532 68.7602 47.532Z" fill="#7896FF"/>
<path d="M42.7139 35.1399C41.9639 35.1399 41.2199 34.8039 40.7279 34.1619C39.8879 33.0679 40.0939 31.4979 41.1899 30.6579C47.2039 26.0439 51.0599 19.3639 52.0499 11.8479C52.2299 10.4799 53.4879 9.51386 54.8539 9.69586C56.2239 9.87586 57.1879 11.1319 57.0059 12.4999C55.8419 21.3399 51.3059 29.1959 44.2319 34.6239C43.7779 34.9719 43.2459 35.1399 42.7139 35.1399Z" fill="#4A81EC"/>
<path d="M31.4607 39.4737L31.4616 35.7197C31.4618 34.9387 30.8288 34.3055 30.0479 34.3053L26.2939 34.3044C25.513 34.3042 24.8798 34.9371 24.8796 35.7181L24.8787 39.4721C24.8785 40.253 25.5114 40.8862 26.2923 40.8864L30.0463 40.8873C30.8272 40.8875 31.4605 40.2546 31.4607 39.4737Z" fill="white"/>
<path d="M47.2299 1.1097L43.8013 2.83903C43.0883 3.19868 42.8018 4.06826 43.1615 4.7813L44.8908 8.20986C45.2504 8.92289 46.12 9.20937 46.8331 8.84972L50.2616 7.12038C50.9747 6.76073 51.2611 5.89115 50.9015 5.17812L49.1721 1.74956C48.8125 1.03652 47.9429 0.750047 47.2299 1.1097Z" fill="#7896FF"/>
<path d="M74.6692 58.8042L75.8325 55.1447C76.0744 54.3836 75.6535 53.5705 74.8925 53.3286L71.2329 52.1653C70.4718 51.9234 69.6587 52.3442 69.4168 53.1053L68.2535 56.7649C68.0116 57.5259 68.4325 58.339 69.1935 58.581L72.8531 59.7442C73.6142 59.9862 74.4273 59.5653 74.6692 58.8042Z" fill="#A8BFFF"/>
<path d="M67.0681 21.0277C68.7293 21.0277 70.0761 19.681 70.0761 18.0197C70.0761 16.3584 68.7293 15.0117 67.0681 15.0117C65.4068 15.0117 64.0601 16.3584 64.0601 18.0197C64.0601 19.681 65.4068 21.0277 67.0681 21.0277Z" fill="#FFC84D"/>
<path d="M7.008 34.0697C8.66927 34.0697 10.016 32.723 10.016 31.0617C10.016 29.4004 8.66927 28.0537 7.008 28.0537C5.34673 28.0537 4 29.4004 4 31.0617C4 32.723 5.34673 34.0697 7.008 34.0697Z" fill="#A8BFFF"/>
<path d="M49.1282 73.2954C51.0667 73.2954 52.6382 71.7239 52.6382 69.7854C52.6382 67.8469 51.0667 66.2754 49.1282 66.2754C47.1896 66.2754 45.6182 67.8469 45.6182 69.7854C45.6182 71.7239 47.1896 73.2954 49.1282 73.2954Z" fill="#FFC84D"/>
</g>
<defs>
<clipPath id="clip0_201_5067">
<rect width="80" height="80" fill="white"/>
</clipPath>
</defs>
</svg>
