<svg width="25" height="24" viewBox="0 0 25 24" fill="none" xmlns="http://www.w3.org/2000/svg">
<path fill-rule="evenodd" clip-rule="evenodd" d="M21.969 8.20401L13.522 1.48701C13.3453 1.34617 13.126 1.26947 12.9 1.26947C12.674 1.26947 12.4547 1.34617 12.278 1.48701L3.83001 8.20401C3.59456 8.39129 3.4044 8.62927 3.27368 8.90023C3.14296 9.1712 3.07505 9.46816 3.07501 9.76901V19.187C3.07501 19.8235 3.32787 20.434 3.77796 20.8841C4.22804 21.3342 4.83849 21.587 5.47501 21.587H10.9V16.835C10.9 16.5698 11.0054 16.3154 11.1929 16.1279C11.3804 15.9404 11.6348 15.835 11.9 15.835H13.9C14.1652 15.835 14.4196 15.9404 14.6071 16.1279C14.7947 16.3154 14.9 16.5698 14.9 16.835V21.587H20.324C20.9605 21.587 21.571 21.3342 22.0211 20.8841C22.4712 20.434 22.724 19.8235 22.724 19.187V9.77001C22.724 9.46916 22.6561 9.1722 22.5253 8.90123C22.3946 8.63027 22.2045 8.39229 21.969 8.20501" fill="#D1D3D8"/>
</svg>
