<svg width="129" height="36" viewBox="0 0 129 36" fill="none" xmlns="http://www.w3.org/2000/svg">
<path d="M124.648 0C127.164 0 129 1.83647 129 4.35163C129 6.86679 127.164 8.70326 124.648 8.70326C122.133 8.70326 120.297 6.86679 120.297 4.35163C120.297 1.83647 122.133 0 124.648 0ZM128.202 11.2983V34.7731H121.095V11.2983H128.202Z" fill="#212124"/>
<path d="M103.116 35.2526C96.4086 35.2526 91.7376 30.1025 91.7376 22.9962C91.7376 15.8899 96.4086 10.7398 103.116 10.7398C106.19 10.7398 108.426 11.8177 109.823 13.6941V1.1582H116.929V34.6937H109.823V32.2983C108.426 34.1747 106.19 35.2526 103.116 35.2526ZM104.234 29.1843C107.707 29.1843 109.943 26.5893 109.943 22.9962C109.943 19.4031 107.707 16.8081 104.234 16.8081C100.84 16.8081 98.6842 19.4031 98.6842 22.9962C98.6842 26.5893 100.84 29.1843 104.234 29.1843Z" fill="#212124"/>
<path d="M66.5298 34.6932V11.2982H73.6362V13.6936C75.0335 11.8172 77.1893 10.7393 80.1836 10.7393C85.6131 10.7393 89.326 14.6917 89.326 21.1592V34.6932H82.2197V22.3569C82.2197 18.8037 80.7824 16.8475 78.1076 16.8475C75.313 16.8475 73.6362 19.0433 73.6362 22.6763V34.6932H66.5298Z" fill="#212124"/>
<path d="M48.5504 35.2521C41.8433 35.2521 37.1722 30.102 37.1722 22.9957C37.1722 15.8894 41.8433 10.7393 48.5504 10.7393C51.6244 10.7393 53.8601 11.8172 55.2575 13.6936V11.2982H62.3638V34.6932H55.2575V32.2978C53.8601 34.1742 51.6244 35.2521 48.5504 35.2521ZM49.6682 29.1838C53.1415 29.1838 55.3772 26.5888 55.3772 22.9957C55.3772 19.4026 53.1415 16.8076 49.6682 16.8076C46.2747 16.8076 44.1189 19.4026 44.1189 22.9957C44.1189 26.5888 46.2747 29.1838 49.6682 29.1838Z" fill="#212124"/>
<path d="M0 34.6937V2.15625H5.78887L17.0073 20.3612L28.2257 2.15625H34.0146V34.6937H26.7485V16.848L19.2031 29.344H14.8115L7.26602 16.848V34.6937H0Z" fill="#212124"/>
</svg>
