<svg width="25" height="24" viewBox="0 0 25 24" fill="none" xmlns="http://www.w3.org/2000/svg">
<path fill-rule="evenodd" clip-rule="evenodd" d="M8.86146 2.58076C9.38932 2.31683 10.0106 2.31683 10.5385 2.58076L15.5323 5.07765C15.6378 5.13043 15.7621 5.13043 15.8677 5.07765L19.7365 3.14326C20.9831 2.51992 22.45 3.42647 22.45 4.82031V17.3047C22.45 18.0149 22.0487 18.6642 21.4135 18.9818L16.5385 21.4193C16.0106 21.6832 15.3893 21.6832 14.8615 21.4193L9.86769 18.9224C9.76211 18.8696 9.63785 18.8696 9.53228 18.9224L5.66351 20.8568C4.41682 21.4801 2.94998 20.5736 2.94998 19.1797V6.69531C2.94998 5.98512 3.35124 5.33587 3.98646 5.01826L8.86146 2.58076ZM9.69998 6.00002C10.1142 6.00002 10.45 6.3358 10.45 6.75002V15C10.45 15.4142 10.1142 15.75 9.69998 15.75C9.28577 15.75 8.94998 15.4142 8.94998 15V6.75002C8.94998 6.3358 9.28577 6.00002 9.69998 6.00002ZM16.45 9.00002C16.45 8.5858 16.1142 8.25002 15.7 8.25002C15.2858 8.25002 14.95 8.5858 14.95 9.00002V17.25C14.95 17.6642 15.2858 18 15.7 18C16.1142 18 16.45 17.6642 16.45 17.25V9.00002Z" fill="#D1D3D8"/>
</svg>
