<svg width="17" height="20" viewBox="0 0 17 20" fill="none" xmlns="http://www.w3.org/2000/svg">
<path d="M8.4 0C4.42358 0 1.20004 3.22355 1.20004 7.2V11.503L0.351505 12.3515C0.00830462 12.6947 -0.0943556 13.2108 0.0913804 13.6592C0.277116 14.1077 0.714685 14.4 1.20004 14.4H15.6C16.0854 14.4 16.5229 14.1077 16.7087 13.6592C16.8944 13.2108 16.7917 12.6947 16.4485 12.3515L15.6 11.503V7.2C15.6 3.22355 12.3764 0 8.4 0Z" fill="#ADB1BA"/>
<path d="M8.39999 19.2C6.41177 19.2 4.79999 17.5883 4.79999 15.6H12C12 17.5883 10.3883 19.2 8.39999 19.2Z" fill="#868B94"/>
</svg>
