<svg width="25" height="24" viewBox="0 0 25 24" fill="none" xmlns="http://www.w3.org/2000/svg">
<path d="M6.97002 14H4.30002C3.20002 14 2.30002 14.9 2.30002 16V21C2.30002 21.55 2.75002 22 3.30002 22H6.97002C7.52002 22 7.97002 21.55 7.97002 21V15C7.97002 14.45 7.52002 14 6.97002 14Z" fill="#D1D3D8"/>
<path d="M13.63 10H10.96C9.86002 10 8.96002 10.9 8.96002 12V21C8.96002 21.55 9.41002 22 9.96002 22H14.63C15.18 22 15.63 21.55 15.63 21V12C15.63 10.9 14.74 10 13.63 10Z" fill="#D1D3D8"/>
<path d="M20.3 17H17.63C17.08 17 16.63 17.45 16.63 18V21C16.63 21.55 17.08 22 17.63 22H21.3C21.85 22 22.3 21.55 22.3 21V19C22.3 17.9 21.4 17 20.3 17Z" fill="#D1D3D8"/>
<path d="M15.31 4.85001C15.62 4.54001 15.74 4.17001 15.64 3.85001C15.54 3.53001 15.23 3.30001 14.79 3.23001L13.83 3.07001C13.79 3.07001 13.7 3.00001 13.68 2.96001L13.15 1.90001C12.75 1.09001 11.84 1.09001 11.44 1.90001L10.91 2.96001C10.9 3.00001 10.81 3.07001 10.77 3.07001L9.81002 3.23001C9.37002 3.30001 9.07002 3.53001 8.96002 3.85001C8.86002 4.17001 8.98002 4.54001 9.29002 4.85001L10.03 5.60001C10.07 5.63001 10.1 5.75001 10.09 5.79001L9.88002 6.71001C9.72002 7.40001 9.98002 7.71001 10.15 7.83001C10.32 7.95001 10.69 8.11001 11.3 7.75001L12.2 7.22001C12.24 7.19001 12.37 7.19001 12.41 7.22001L13.3 7.75001C13.58 7.92001 13.81 7.97001 13.99 7.97001C14.2 7.97001 14.35 7.89001 14.44 7.83001C14.61 7.71001 14.87 7.40001 14.71 6.71001L14.5 5.79001C14.49 5.74001 14.52 5.63001 14.56 5.60001L15.31 4.85001Z" fill="#D1D3D8"/>
</svg>
