<svg width="25" height="24" viewBox="0 0 25 24" fill="none" xmlns="http://www.w3.org/2000/svg">
<path fill-rule="evenodd" clip-rule="evenodd" d="M16.9873 6.64401C16.9873 7.28683 16.8608 7.92337 16.6149 8.51729C16.3689 9.1112 16.0084 9.65086 15.5539 10.1054C15.0994 10.56 14.5598 10.9207 13.966 11.1667C13.3721 11.4128 12.7356 11.5394 12.0928 11.5395C10.7945 11.5396 9.54942 11.024 8.63134 10.1062C7.71325 9.18826 7.1974 7.94325 7.19727 6.64501C7.1972 6.00219 7.32375 5.36565 7.56969 4.77174C7.81562 4.17782 8.17613 3.63817 8.63063 3.18358C9.54852 2.26549 10.7935 1.74964 12.0918 1.74951C13.39 1.74938 14.6351 2.26497 15.5532 3.18287C16.4713 4.10077 16.9871 5.34578 16.9873 6.64401ZM12.0923 13.037C5.04327 13.037 2.30127 17.523 2.30127 19.61C2.30127 21.696 8.13827 22.252 12.0923 22.252C16.0463 22.252 21.8833 21.696 21.8833 19.61C21.8833 17.523 19.1413 13.037 12.0923 13.037Z" fill="#D1D3D8"/>
</svg>
